<?xml version="1.0" encoding="UTF-8"?>
<svg version="1.1" xmlns="http://www.w3.org/2000/svg" width="160" height="160">
<path d="M0 0 C1.80328001 1.07222055 3.56688393 2.21125595 5.3125 3.375 C5.74487305 6.08056641 5.74487305 6.08056641 5.82421875 9.4765625 C5.85966797 10.68828125 5.89511719 11.9 5.93164062 13.1484375 C5.95419922 14.41945313 5.97675781 15.69046875 6 17 C6.03416016 18.27875 6.06832031 19.5575 6.10351562 20.875 C6.18622479 24.04157932 6.25530085 27.20787364 6.3125 30.375 C7.28832031 30.84550781 8.26414062 31.31601562 9.26953125 31.80078125 C10.55484508 32.42936539 11.83999267 33.05828952 13.125 33.6875 C13.76759766 33.99623047 14.41019531 34.30496094 15.07226562 34.62304688 C18.3356017 36.2293522 20.78575702 37.79281125 23.3125 40.375 C30.60123458 40.52077469 35.49880068 36.22705531 41.125 32.01953125 C44.61767934 29.65065383 47.05923594 29.11452173 51.125 29.75 C54.57859634 30.74010953 55.10179881 31.0160276 57 34.25 C57.34056287 37.65562871 57.19022702 38.60767674 55.3125 41.375 C53.17358398 42.54980469 53.17358398 42.54980469 50.55859375 43.546875 C41.69345323 47.32967878 41.69345323 47.32967878 34.3125 53.375 C31.4767871 60.97777622 32.36202643 69.45214449 33.3125 77.375 C34.36050781 77.97054687 35.40851563 78.56609375 36.48828125 79.1796875 C40.35897262 81.39123279 44.17124282 83.69228304 47.98046875 86.0078125 C50.26069438 87.39152248 50.26069438 87.39152248 52.55078125 88.4296875 C54.3125 89.375 54.3125 89.375 55.3125 91.375 C55.44665472 94.0473621 55.35568541 96.69750488 55.3125 99.375 C51.1501348 101.4561826 48.79953916 101.54893466 44.3125 100.375 C40.53419911 98.42353463 36.99158853 96.08578182 33.4140625 93.79296875 C32.68703125 93.34308594 31.96 92.89320312 31.2109375 92.4296875 C30.55786621 92.01187012 29.90479492 91.59405273 29.23193359 91.16357422 C26.81610282 90.1710617 25.72420589 90.47006402 23.3125 91.375 C21.86282789 92.26060796 20.4473734 93.2036421 19.0625 94.1875 C14.89200066 97.1479457 11.06678984 98.99785508 6.3125 101.375 C5.9825 109.955 5.6525 118.535 5.3125 127.375 C2.8375 128.365 2.8375 128.365 0.3125 129.375 C-0.0175 130.365 -0.3475 131.355 -0.6875 132.375 C-3.66804716 130.99117453 -6.30320726 129.6534537 -8.6875 127.375 C-9.23339844 124.5559082 -9.23339844 124.5559082 -9.296875 121.17578125 C-9.32910156 119.96728516 -9.36132812 118.75878906 -9.39453125 117.51367188 C-9.40871094 116.25103516 -9.42289063 114.98839844 -9.4375 113.6875 C-9.48197266 111.77614258 -9.48197266 111.77614258 -9.52734375 109.82617188 C-9.59814049 106.67571708 -9.65079047 103.5260066 -9.6875 100.375 C-11.13382813 99.66923828 -11.13382813 99.66923828 -12.609375 98.94921875 C-13.88552296 98.32052821 -15.16155874 97.69160993 -16.4375 97.0625 C-17.07171875 96.75376953 -17.7059375 96.44503906 -18.359375 96.12695312 C-21.06364039 94.78890515 -23.50776025 93.52554844 -25.828125 91.58203125 C-27.6653315 90.12954733 -27.6653315 90.12954733 -30.1640625 90.51171875 C-32.84083616 91.42745711 -34.76275315 92.5477888 -37.0625 94.1875 C-37.84109375 94.72117187 -38.6196875 95.25484375 -39.421875 95.8046875 C-40.80884064 96.76599817 -42.19456469 97.72910716 -43.578125 98.6953125 C-46.76399551 100.74747233 -48.54706406 101.37976054 -52.375 101.25 C-55.12942196 100.52241684 -57.19968573 99.68665807 -59.6875 98.375 C-59.59211926 95.07335884 -59.11785871 92.36843112 -57.6875 89.375 C-54.31325658 86.76897312 -50.54088543 85.16301046 -46.6875 83.375 C-44.79729891 82.31841306 -42.92102242 81.23636427 -41.0625 80.125 C-40.24523437 79.64546875 -39.42796875 79.1659375 -38.5859375 78.671875 C-36.55113715 77.50751425 -36.55113715 77.50751425 -35.6875 75.375 C-35.80337412 73.32982183 -35.97945796 71.2878663 -36.1875 69.25 C-36.64386685 64.04510719 -36.59331437 59.50794811 -35.6875 54.375 C-37.64536633 53.16591013 -39.60382266 51.95777563 -41.5625 50.75 C-42.14805664 50.38463135 -42.73361328 50.0192627 -43.33691406 49.64282227 C-46.10511038 47.92342464 -48.86154369 46.28263666 -51.7421875 44.75390625 C-58.31175633 41.24061509 -58.31175633 41.24061509 -59.5234375 38.44921875 C-59.8125 36.5 -59.8125 36.5 -59.6875 33.375 C-54.65109743 29.41782655 -54.65109743 29.41782655 -50.875 29.25 C-46.28308932 30.87067436 -42.65542512 33.5981449 -38.6875 36.375 C-34.6898695 39.00019049 -31.60242569 40.9580017 -26.6875 40.375 C-24.1855815 38.9755099 -24.1855815 38.9755099 -21.8125 37.0625 C-17.90171983 34.06339688 -14.2351494 32.19070768 -9.6875 30.375 C-9.68919189 29.17955566 -9.68919189 29.17955566 -9.69091797 27.95996094 C-9.67880957 24.34744536 -9.62117284 20.73704672 -9.5625 17.125 C-9.56636719 15.24361328 -9.56636719 15.24361328 -9.5703125 13.32421875 C-9.37765387 4.31742774 -9.37765387 4.31742774 -7.38842773 1.60107422 C-4.73648841 -0.27726386 -3.16832633 -0.73682008 0 0 Z M-18.6875 45.375 C-18.72275132 47.26158874 -18.72275132 47.26158874 -17.6875 49.375 C-14.4713181 51.82227466 -11.76355096 53.375 -7.6875 53.375 C-7.66037934 51.93760487 -7.64104933 50.50006137 -7.625 49.0625 C-7.61339844 48.26199219 -7.60179687 47.46148437 -7.58984375 46.63671875 C-7.59092145 44.20638666 -7.59092145 44.20638666 -8.6875 41.375 C-13.40656188 41.375 -14.95787031 42.66254204 -18.6875 45.375 Z M6.3125 43.375 C5.9825 46.345 5.6525 49.315 5.3125 52.375 C9.22461733 51.21914715 12.1870041 50.01965038 15.3125 47.375 C14.9825 46.385 14.6525 45.395 14.3125 44.375 C11.60370665 43.02060332 9.30316732 43.30998549 6.3125 43.375 Z M-25.6875 60.375 C-28.13647847 64.04846771 -28.00287716 66.03856399 -27.6875 70.375 C-27.0275 71.035 -26.3675 71.695 -25.6875 72.375 C-22.7175 70.395 -19.7475 68.415 -16.6875 66.375 C-18.26866476 62.04637075 -18.26866476 62.04637075 -22.3125 61.125 C-23.983125 60.75375 -23.983125 60.75375 -25.6875 60.375 Z M19.3125 61.375 C17.7291747 62.6238427 17.7291747 62.6238427 16.3125 64.375 C16.3125 65.695 16.3125 67.015 16.3125 68.375 C19.50016556 70.75208753 19.50016556 70.75208753 23.3125 71.375 C22.9825 68.405 22.6525 65.435 22.3125 62.375 C21.3225 62.045 20.3325 61.715 19.3125 61.375 Z M-13.6875 79.125 C-14.409375 79.44984375 -15.13125 79.7746875 -15.875 80.109375 C-17.87562137 81.24371323 -17.87562137 81.24371323 -18.4375 83.515625 C-18.52 84.12921875 -18.6025 84.7428125 -18.6875 85.375 C-15.432166 88.25829583 -13.08771656 90.00831529 -8.6875 90.375 C-8.3575 90.045 -8.0275 89.715 -7.6875 89.375 C-7.77752398 87.35091245 -7.93391038 85.32955713 -8.125 83.3125 C-8.22683594 82.20777344 -8.32867187 81.10304688 -8.43359375 79.96484375 C-8.51738281 79.11019531 -8.60117188 78.25554687 -8.6875 77.375 C-10.50814048 77.375 -12.0617205 78.3701738 -13.6875 79.125 Z M5.3125 78.375 C5.11772261 79.99914378 4.93190542 81.62436423 4.75 83.25 C4.64558594 84.15492187 4.54117188 85.05984375 4.43359375 85.9921875 C4.11575148 88.39153057 4.11575148 88.39153057 5.3125 90.375 C9.22461733 89.21914715 12.1870041 88.01965038 15.3125 85.375 C14.20434175 82.16134109 13.32720446 81.3835776 10.3125 79.625 C7.54647436 78.24679487 7.54647436 78.24679487 5.3125 78.375 Z " fill="#FEFDFC" transform="translate(81.6875,14.625)"/>
<path d="M0 0 C0.99 0 1.98 0 3 0 C4.16983345 2.3396669 4.1661241 3.83391527 4.1875 6.4375 C4.20167969 7.21996094 4.21585938 8.00242187 4.23046875 8.80859375 C4 11 4 11 2 14 C1.34 11.03 0.68 8.06 0 5 C-4.08785794 6.46510021 -4.08785794 6.46510021 -4.75 9.125 C-4.8325 9.74375 -4.915 10.3625 -5 11 C-6.98 10.34 -8.96 9.68 -11 9 C-9.77122115 5.31366345 -8.85395804 5.10504797 -5.5 3.375 C-2.55480881 1.95980348 -2.55480881 1.95980348 0 0 Z " fill="#FCF3EA" transform="translate(103,72)"/>
<path d="M0 0 C-1.70349609 0.59554687 -1.70349609 0.59554687 -3.44140625 1.203125 C-5.46063827 2.23566315 -5.46063827 2.23566315 -7 4 C-8.06266389 8.23210726 -7.97858393 12.40476992 -7.9375 16.75 C-7.95361328 17.92433594 -7.96972656 19.09867188 -7.98632812 20.30859375 C-8.02167344 23.2069095 -8.02505113 26.10167934 -8 29 C-9.98960773 25.6816923 -10.2361745 23.20040301 -10.1953125 19.359375 C-10.18886719 18.28945312 -10.18242188 17.21953125 -10.17578125 16.1171875 C-10.15902344 15.00601563 -10.14226562 13.89484375 -10.125 12.75 C-10.11597656 11.62335938 -10.10695313 10.49671875 -10.09765625 9.3359375 C-10.07410658 6.55707635 -10.0412168 3.7786461 -10 1 C-3.375 -1.125 -3.375 -1.125 0 0 Z " fill="#FAF5EE" transform="translate(95,112)"/>
<path d="M0 0 C4 1 4 1 7 2 C7 2.66 7 3.32 7 4 C6.01 4.33 5.02 4.66 4 5 C3.19436362 7.10584438 3.19436362 7.10584438 2.8125 9.5625 C2.65394531 10.38878906 2.49539062 11.21507813 2.33203125 12.06640625 C2.22246094 12.70449219 2.11289063 13.34257813 2 14 C3.98 13.34 5.96 12.68 8 12 C5.6875 14.5 5.6875 14.5 3 17 C2.01 17 1.02 17 0 17 C0 11.39 0 5.78 0 0 Z " fill="#FCF6EE" transform="translate(85,53)"/>
<path d="M0 0 C0.66 0 1.32 0 2 0 C2.66 1.65 3.32 3.3 4 5 C-11.98969072 16 -11.98969072 16 -16 16 C-15 13 -15 13 -12.34765625 11.46484375 C-11.26355469 10.96082031 -10.17945312 10.45679688 -9.0625 9.9375 C-4.68785475 7.96017592 -4.68785475 7.96017592 -1 5 C-0.35232207 2.42938689 -0.35232207 2.42938689 0 0 Z " fill="#FCF3EC" transform="translate(135,49)"/>
<path d="M0 0 C0 0.99 0 1.98 0 3 C-0.99 3.33 -1.98 3.66 -3 4 C-3 10.6 -3 17.2 -3 24 C-3.66 24 -4.32 24 -5 24 C-5.14505175 20.56294295 -5.23398014 17.12666967 -5.3125 13.6875 C-5.3753418 12.22280273 -5.3753418 12.22280273 -5.43945312 10.72851562 C-5.48526849 8.06206134 -5.4882833 5.62286143 -5 3 C-2.48046875 0.83203125 -2.48046875 0.83203125 0 0 Z " fill="#FCF5EE" transform="translate(78,15)"/>
<path d="M0 0 C4.75 0.875 4.75 0.875 7 2 C6.67 2.66 6.34 3.32 6 4 C4.8553125 3.6596875 4.8553125 3.6596875 3.6875 3.3125 C2.800625 3.209375 1.91375 3.10625 1 3 C-0.56249809 4.31201173 -0.56249809 4.31201173 -2 6 C-4.6875 7.1875 -4.6875 7.1875 -7 8 C-5.86280581 4.58841744 -4.95657056 3.88145399 -2 2 C-1.34 2 -0.68 2 0 2 C0 1.34 0 0.68 0 0 Z " fill="#FCF6F0" transform="translate(105,102)"/>
<path d="M0 0 C0.33 0 0.66 0 1 0 C0.98839844 0.91523437 0.97679688 1.83046875 0.96484375 2.7734375 C0.95582031 3.96195312 0.94679688 5.15046875 0.9375 6.375 C0.92589844 7.55835937 0.91429688 8.74171875 0.90234375 9.9609375 C0.78533407 12.91921521 0.78533407 12.91921521 2 15 C0.68 14.34 -0.64 13.68 -2 13 C-1.34 8.71 -0.68 4.42 0 0 Z " fill="#FBF4EE" transform="translate(114,79)"/>
<path d="M0 0 C0.99 0.33 1.98 0.66 3 1 C2.67 1.33 2.34 1.66 2 2 C1.76712992 3.68183948 1.58735834 5.3712416 1.4375 7.0625 C1.31181641 8.44115234 1.31181641 8.44115234 1.18359375 9.84765625 C1.12300781 10.55792969 1.06242187 11.26820312 1 12 C-1.39763185 9.60236815 -1.34280586 8.66726502 -1.625 5.375 C-1.69976562 4.55773437 -1.77453125 3.74046875 -1.8515625 2.8984375 C-1.90054688 2.27195312 -1.94953125 1.64546875 -2 1 C-1.34 0.67 -0.68 0.34 0 0 Z " fill="#FCF5ED" transform="translate(114,66)"/>
<path d="M0 0 C0.66 0 1.32 0 2 0 C2 1.65 2 3.3 2 5 C3.32 5.33 4.64 5.66 6 6 C6 6.66 6 7.32 6 8 C3.03 7.505 3.03 7.505 0 7 C-1.04449911 3.86650268 -0.93423645 3.01031744 0 0 Z " fill="#FAF6F0" transform="translate(23,107)"/>
<path d="M0 0 C1.32 0 2.64 0 4 0 C4 0.66 4 1.32 4 2 C3.34 2 2.68 2 2 2 C1.67 4.64 1.34 7.28 1 10 C0.67 10 0.34 10 0 10 C0 6.7 0 3.4 0 0 Z " fill="#FDF5E8" transform="translate(53,72)"/>
<path d="M0 0 C0.99 0.33 1.98 0.66 3 1 C2.34 1 1.68 1 1 1 C1 2.98 1 4.96 1 7 C0.01 7.495 0.01 7.495 -1 8 C-1.625 5.125 -1.625 5.125 -2 2 C-1.34 1.34 -0.68 0.68 0 0 Z " fill="#FAF4EC" transform="translate(24,46)"/>
</svg>
